<svg version="1.0" xmlns="http://www.w3.org/2000/svg"
 width="300.000000pt" height="68.000000pt" viewBox="0 0 300.000000 68.000000"
 preserveAspectRatio="xMidYMid meet">
<g transform="translate(0.000000,68.000000) scale(0.100000,-0.100000)">
<path d="M224 569 c-19 -21 -19 -21 16 -50 19 -16 38 -29 42 -29 21 0 5 -18
-21 -23 -40 -8 -91 -54 -112 -102 -45 -98 -6 -199 96 -246 71 -33 148 -18 206
40 104 104 56 272 -89 310 -22 6 -21 8 23 40 l46 33 -22 24 c-20 21 -32 24
-94 24 -60 0 -75 -3 -91 -21z m51 1 c-3 -5 0 -10 9 -10 8 0 16 6 19 13 3 9 9
9 28 -2 16 -10 24 -10 27 -2 5 15 20 14 36 -2 11 -10 -3 -13 -75 -14 -72 0
-85 2 -76 13 14 15 41 19 32 4z m24 -52 l11 -23 -5 22 c-6 21 -3 22 44 21 27
-1 47 -6 45 -10 -3 -5 -9 -6 -14 -3 -4 3 -13 -2 -21 -11 -27 -33 -49 -37 -75
-13 -27 25 -31 39 -11 39 8 0 19 -10 26 -22z m96 -107 c89 -50 101 -177 23
-247 -74 -67 -197 -41 -239 50 -23 51 -23 74 -3 126 35 86 134 119 219 71z"/>
<path d="M650 341 c0 -154 1 -161 20 -161 19 0 20 7 20 118 l1 117 56 -118
c36 -75 61 -117 70 -115 8 2 37 53 66 114 l52 112 3 -114 c2 -106 4 -114 22
-114 19 0 20 8 20 160 0 148 -1 160 -18 160 -14 0 -35 -34 -82 -132 l-64 -132
-63 130 c-46 92 -70 130 -83 132 -19 3 -20 -4 -20 -157z"/>
<path d="M1087 348 c-37 -84 -67 -156 -67 -160 0 -5 7 -8 16 -8 9 0 23 17 32
40 l17 40 85 0 85 0 17 -40 c9 -23 23 -40 32 -40 9 0 16 3 16 8 0 4 -30 76
-67 159 -44 99 -73 153 -83 153 -10 0 -38 -52 -83 -152z m120 17 l32 -75 -70
0 c-39 0 -69 4 -67 8 28 68 64 142 68 142 3 0 20 -34 37 -75z"/>
<path d="M1350 480 c0 -17 7 -20 45 -20 l45 0 0 -141 c0 -128 2 -140 18 -137
15 3 17 18 17 141 l0 137 43 0 c35 0 42 3 42 20 0 19 -7 20 -105 20 -98 0
-105 -1 -105 -20z"/>
<path d="M1711 458 c-10 -24 -42 -94 -70 -157 -28 -62 -51 -115 -51 -117 0 -2
9 -4 19 -4 13 0 24 13 35 40 l16 40 84 0 84 0 16 -40 c11 -28 22 -40 36 -40
11 0 20 1 20 3 0 1 -31 72 -70 157 -40 90 -76 156 -85 158 -10 2 -22 -12 -34
-40z m68 -87 c17 -40 31 -75 31 -77 0 -2 -31 -4 -69 -4 l-69 0 36 80 c20 43
37 78 38 77 1 -1 16 -35 33 -76z"/>
<path d="M1935 343 c3 -135 6 -158 19 -161 13 -3 16 8 16 67 l0 71 80 0 80 0
0 -70 c0 -63 2 -70 20 -70 19 0 20 7 20 160 0 153 -1 160 -20 160 -18 0 -20
-7 -20 -72 l0 -73 -80 3 -80 4 0 69 c0 61 -2 69 -19 69 -18 0 -19 -8 -16 -157z"/>
<path d="M2277 348 c-37 -84 -67 -156 -67 -160 0 -5 7 -8 16 -8 9 0 22 17 31
40 l16 40 86 0 86 0 17 -40 c9 -23 23 -40 32 -40 9 0 16 3 16 7 0 4 -30 76
-67 160 -46 102 -73 153 -84 153 -10 0 -37 -49 -82 -152z m120 17 l31 -75 -70
0 c-38 0 -68 4 -66 8 27 65 64 142 68 142 3 0 19 -34 37 -75z"/>
<path d="M2550 340 c0 -153 1 -160 20 -160 18 0 20 7 20 60 l0 60 34 0 c31 0
39 -6 77 -60 26 -37 49 -60 60 -60 20 0 25 15 9 25 -5 3 -23 26 -40 50 l-30
44 30 29 c22 23 30 40 30 67 0 73 -46 105 -151 105 l-59 0 0 -160z m146 112
c13 -9 34 -46 34 -62 0 -6 -11 -22 -25 -35 -18 -19 -35 -25 -70 -25 l-45 0 0
65 0 65 48 0 c26 0 52 -4 58 -8z"/>
<path d="M2817 343 c1 -136 3 -158 17 -161 14 -3 16 15 16 157 0 147 -2 161
-17 161 -16 0 -18 -14 -16 -157z"/>
</g>
</svg>
